<?xml version="1.0" encoding="iso-8859-1"?>
<!-- Generator: Adobe Illustrator 16.0.0, SVG Export Plug-In . SVG Version: 6.00 Build 0)  -->
<!DOCTYPE svg PUBLIC "-//W3C//DTD SVG 1.1//EN" "http://www.w3.org/Graphics/SVG/1.1/DTD/svg11.dtd">
<svg xmlns="http://www.w3.org/2000/svg" xmlns:xlink="http://www.w3.org/1999/xlink" version="1.1" id="Capa_1" x="0px" y="0px" width="24px" height="24px" viewBox="0 0 529.387 529.387" style="enable-background:new 0 0 529.387 529.387;" xml:space="preserve">
<g>
	<g>
		<path d="M250.295,181.247c6.891,0,13.815-0.793,20.587-2.371c48.658-11.317,79.043-60.111,67.73-108.771    C329.011,28.826,292.749,0,250.43,0c-6.893,0-13.821,0.805-20.594,2.373c-48.658,11.314-79.042,60.11-67.729,108.768    c9.597,41.273,45.863,70.107,88.186,70.107L250.295,181.247L250.295,181.247z M189.299,52.598    c10.159-16.307,26.054-27.687,44.771-32.037c5.385-1.249,10.891-1.887,16.36-1.887c30.429,0,56.853,18.82,67.236,46.716    L178.839,97.662C177.263,81.942,180.812,66.23,189.299,52.598z M183.057,115.864l138.818-32.281    c3.501,35.383-19.682,68.839-55.225,77.1c-5.386,1.26-10.888,1.889-16.355,1.889h-0.003    C219.865,162.571,193.441,143.749,183.057,115.864z" fill="#D80027"/>
		<path d="M367.014,436.684c3.547-10.488,3.508-23.791-0.119-39.549L332.111,189.17c-0.035-0.191-0.068-0.383-0.115-0.574    c-0.807-3.457-1.981-6.939-3.496-10.359c-1.194-2.699-3.598-4.669-6.473-5.317c-2.885-0.655-5.896,0.083-8.136,2.006    c-11.413,9.767-24.641,16.451-39.312,19.86c-14.519,3.385-29.66,3.213-44.045-0.474c-2.854-0.729-5.887-0.072-8.178,1.78    c-2.295,1.851-3.582,4.678-3.472,7.623c0.142,3.703,0.623,7.358,1.437,10.852c0.045,0.182,0.096,0.373,0.149,0.565l60.534,201.964    c9.101,38.764,29.275,46.918,44.617,46.918c0.629,0,1.293-0.092,1.938-0.119l13.551,58.268c1.003,4.314,4.843,7.225,9.089,7.225    c0.699,0,1.414-0.08,2.123-0.246c5.025-1.166,8.149-6.184,6.98-11.207l-13.549-58.27    C356.111,455.096,363.42,447.316,367.014,436.684z M349.322,430.701c-2.477,7.322-7.777,11.699-16.693,13.771    c-2.479,0.572-4.834,0.865-7.006,0.865c-4.668,0-18.881,0-26.494-32.756c-0.047-0.189-0.098-0.383-0.15-0.564L239.945,215.06    c12.922,1.586,26.104,0.885,38.866-2.079c12.721-2.954,24.881-8.171,35.787-15.294L348.521,400.5    c0.031,0.191,0.069,0.383,0.115,0.574C351.529,413.521,351.761,423.488,349.322,430.701z" fill="#D80027"/>
	</g>
</g>
<g>
</g>
<g>
</g>
<g>
</g>
<g>
</g>
<g>
</g>
<g>
</g>
<g>
</g>
<g>
</g>
<g>
</g>
<g>
</g>
<g>
</g>
<g>
</g>
<g>
</g>
<g>
</g>
<g>
</g>
</svg>
